<svg id="wave" style="transform:rotate(0deg); transition: 0.3s" viewBox="0 0 1440 490" version="1.1" xmlns="http://www.w3.org/2000/svg"><defs><linearGradient id="sw-gradient-0" x1="0" x2="0" y1="1" y2="0"><stop stop-color="rgba(64.849, 23.418, 212.097, 1)" offset="0%"></stop><stop stop-color="rgba(255, 123.044, 11, 1)" offset="100%"></stop></linearGradient></defs><path style="transform:translate(0, 0px); opacity:1" fill="url(#sw-gradient-0)" d="M0,392L10,334.8C20,278,40,163,60,171.5C80,180,100,310,120,318.5C140,327,160,212,180,147C200,82,220,65,240,122.5C260,180,280,310,300,326.7C320,343,340,245,360,220.5C380,196,400,245,420,236.8C440,229,460,163,480,179.7C500,196,520,294,540,294C560,294,580,196,600,196C620,196,640,294,660,302.2C680,310,700,229,720,163.3C740,98,760,49,780,57.2C800,65,820,131,840,196C860,261,880,327,900,310.3C920,294,940,196,960,196C980,196,1000,294,1020,285.8C1040,278,1060,163,1080,98C1100,33,1120,16,1140,57.2C1160,98,1180,196,1200,253.2C1220,310,1240,327,1260,351.2C1280,376,1300,408,1320,367.5C1340,327,1360,212,1380,171.5C1400,131,1420,163,1430,179.7L1440,196L1440,490L1430,490C1420,490,1400,490,1380,490C1360,490,1340,490,1320,490C1300,490,1280,490,1260,490C1240,490,1220,490,1200,490C1180,490,1160,490,1140,490C1120,490,1100,490,1080,490C1060,490,1040,490,1020,490C1000,490,980,490,960,490C940,490,920,490,900,490C880,490,860,490,840,490C820,490,800,490,780,490C760,490,740,490,720,490C700,490,680,490,660,490C640,490,620,490,600,490C580,490,560,490,540,490C520,490,500,490,480,490C460,490,440,490,420,490C400,490,380,490,360,490C340,490,320,490,300,490C280,490,260,490,240,490C220,490,200,490,180,490C160,490,140,490,120,490C100,490,80,490,60,490C40,490,20,490,10,490L0,490Z"></path></svg>
