<svg id="wave" style="transform:rotate(0deg); transition: 0.3s" viewBox="0 0 1440 1000" version="1.1" xmlns="http://www.w3.org/2000/svg"><defs><linearGradient id="sw-gradient-0" x1="0" x2="0" y1="1" y2="0"><stop stop-color="rgba(243, 106, 62, 1)" offset="0%"></stop><stop stop-color="rgba(255, 179, 11, 1)" offset="100%"></stop></linearGradient></defs><path style="transform:translate(0, 0px); opacity:1" fill="url(#sw-gradient-0)" d="M0,98L10,106.2C20,114,40,131,60,187.8C80,245,100,343,120,359.3C140,376,160,310,180,277.7C200,245,220,245,240,220.5C260,196,280,147,300,163.3C320,180,340,261,360,302.2C380,343,400,343,420,310.3C440,278,460,212,480,155.2C500,98,520,49,540,81.7C560,114,580,229,600,269.5C620,310,640,278,660,228.7C680,180,700,114,720,138.8C740,163,760,278,780,269.5C800,261,820,131,840,130.7C860,131,880,261,900,326.7C920,392,940,392,960,326.7C980,261,1000,131,1020,130.7C1040,131,1060,261,1080,285.8C1100,310,1120,229,1140,163.3C1160,98,1180,49,1200,40.8C1220,33,1240,65,1260,114.3C1280,163,1300,229,1320,212.3C1340,196,1360,98,1380,81.7C1400,65,1420,131,1430,163.3L1440,196L1440,490L1430,490C1420,490,1400,490,1380,490C1360,490,1340,490,1320,490C1300,490,1280,490,1260,490C1240,490,1220,490,1200,490C1180,490,1160,490,1140,490C1120,490,1100,490,1080,490C1060,490,1040,490,1020,490C1000,490,980,490,960,490C940,490,920,490,900,490C880,490,860,490,840,490C820,490,800,490,780,490C760,490,740,490,720,490C700,490,680,490,660,490C640,490,620,490,600,490C580,490,560,490,540,490C520,490,500,490,480,490C460,490,440,490,420,490C400,490,380,490,360,490C340,490,320,490,300,490C280,490,260,490,240,490C220,490,200,490,180,490C160,490,140,490,120,490C100,490,80,490,60,490C40,490,20,490,10,490L0,490Z"></path><defs><linearGradient id="sw-gradient-1" x1="0" x2="0" y1="1" y2="0"><stop stop-color="rgba(243, 106, 62, 1)" offset="0%"></stop><stop stop-color="rgba(255, 179, 11, 1)" offset="100%"></stop></linearGradient></defs><path style="transform:translate(0, 50px); opacity:0.9" fill="url(#sw-gradient-1)" d="M0,0L10,24.5C20,49,40,98,60,106.2C80,114,100,82,120,98C140,114,160,180,180,204.2C200,229,220,212,240,228.7C260,245,280,294,300,294C320,294,340,245,360,253.2C380,261,400,327,420,334.8C440,343,460,294,480,277.7C500,261,520,278,540,277.7C560,278,580,261,600,245C620,229,640,212,660,228.7C680,245,700,294,720,285.8C740,278,760,212,780,163.3C800,114,820,82,840,122.5C860,163,880,278,900,310.3C920,343,940,294,960,294C980,294,1000,343,1020,318.5C1040,294,1060,196,1080,187.8C1100,180,1120,261,1140,318.5C1160,376,1180,408,1200,424.7C1220,441,1240,441,1260,424.7C1280,408,1300,376,1320,326.7C1340,278,1360,212,1380,196C1400,180,1420,212,1430,228.7L1440,245L1440,490L1430,490C1420,490,1400,490,1380,490C1360,490,1340,490,1320,490C1300,490,1280,490,1260,490C1240,490,1220,490,1200,490C1180,490,1160,490,1140,490C1120,490,1100,490,1080,490C1060,490,1040,490,1020,490C1000,490,980,490,960,490C940,490,920,490,900,490C880,490,860,490,840,490C820,490,800,490,780,490C760,490,740,490,720,490C700,490,680,490,660,490C640,490,620,490,600,490C580,490,560,490,540,490C520,490,500,490,480,490C460,490,440,490,420,490C400,490,380,490,360,490C340,490,320,490,300,490C280,490,260,490,240,490C220,490,200,490,180,490C160,490,140,490,120,490C100,490,80,490,60,490C40,490,20,490,10,490L0,490Z"></path><defs><linearGradient id="sw-gradient-2" x1="0" x2="0" y1="1" y2="0"><stop stop-color="rgba(243, 106, 62, 1)" offset="0%"></stop><stop stop-color="rgba(255, 179, 11, 1)" offset="100%"></stop></linearGradient></defs><path style="transform:translate(0, 100px); opacity:0.8" fill="url(#sw-gradient-2)" d="M0,245L10,212.3C20,180,40,114,60,130.7C80,147,100,245,120,285.8C140,327,160,310,180,294C200,278,220,261,240,245C260,229,280,212,300,187.8C320,163,340,131,360,114.3C380,98,400,98,420,81.7C440,65,460,33,480,73.5C500,114,520,229,540,228.7C560,229,580,114,600,73.5C620,33,640,65,660,65.3C680,65,700,33,720,89.8C740,147,760,294,780,302.2C800,310,820,180,840,138.8C860,98,880,147,900,212.3C920,278,940,359,960,392C980,425,1000,408,1020,408.3C1040,408,1060,425,1080,416.5C1100,408,1120,376,1140,326.7C1160,278,1180,212,1200,228.7C1220,245,1240,343,1260,326.7C1280,310,1300,180,1320,147C1340,114,1360,180,1380,171.5C1400,163,1420,82,1430,40.8L1440,0L1440,490L1430,490C1420,490,1400,490,1380,490C1360,490,1340,490,1320,490C1300,490,1280,490,1260,490C1240,490,1220,490,1200,490C1180,490,1160,490,1140,490C1120,490,1100,490,1080,490C1060,490,1040,490,1020,490C1000,490,980,490,960,490C940,490,920,490,900,490C880,490,860,490,840,490C820,490,800,490,780,490C760,490,740,490,720,490C700,490,680,490,660,490C640,490,620,490,600,490C580,490,560,490,540,490C520,490,500,490,480,490C460,490,440,490,420,490C400,490,380,490,360,490C340,490,320,490,300,490C280,490,260,490,240,490C220,490,200,490,180,490C160,490,140,490,120,490C100,490,80,490,60,490C40,490,20,490,10,490L0,490Z"></path><defs><linearGradient id="sw-gradient-3" x1="0" x2="0" y1="1" y2="0"><stop stop-color="rgba(243, 106, 62, 1)" offset="0%"></stop><stop stop-color="rgba(255, 179, 11, 1)" offset="100%"></stop></linearGradient></defs><path style="transform:translate(0, 150px); opacity:0.7" fill="url(#sw-gradient-3)" d="M0,0L10,57.2C20,114,40,229,60,245C80,261,100,180,120,196C140,212,160,327,180,351.2C200,376,220,310,240,253.2C260,196,280,147,300,179.7C320,212,340,327,360,318.5C380,310,400,180,420,147C440,114,460,180,480,187.8C500,196,520,147,540,106.2C560,65,580,33,600,16.3C620,0,640,0,660,32.7C680,65,700,131,720,130.7C740,131,760,65,780,65.3C800,65,820,131,840,171.5C860,212,880,229,900,204.2C920,180,940,114,960,98C980,82,1000,114,1020,147C1040,180,1060,212,1080,261.3C1100,310,1120,376,1140,359.3C1160,343,1180,245,1200,187.8C1220,131,1240,114,1260,98C1280,82,1300,65,1320,106.2C1340,147,1360,245,1380,302.2C1400,359,1420,376,1430,383.8L1440,392L1440,490L1430,490C1420,490,1400,490,1380,490C1360,490,1340,490,1320,490C1300,490,1280,490,1260,490C1240,490,1220,490,1200,490C1180,490,1160,490,1140,490C1120,490,1100,490,1080,490C1060,490,1040,490,1020,490C1000,490,980,490,960,490C940,490,920,490,900,490C880,490,860,490,840,490C820,490,800,490,780,490C760,490,740,490,720,490C700,490,680,490,660,490C640,490,620,490,600,490C580,490,560,490,540,490C520,490,500,490,480,490C460,490,440,490,420,490C400,490,380,490,360,490C340,490,320,490,300,490C280,490,260,490,240,490C220,490,200,490,180,490C160,490,140,490,120,490C100,490,80,490,60,490C40,490,20,490,10,490L0,490Z"></path></svg>
