<svg id="wave" style="transform:rotate(0deg); transition: 0.3s" viewBox="0 0 1440 490" version="1.1" xmlns="http://www.w3.org/2000/svg"><defs><linearGradient id="sw-gradient-0" x1="0" x2="0" y1="1" y2="0"><stop stop-color="rgba(21.439, 0, 255, 0.88)" offset="0%"></stop><stop stop-color="rgba(145.083, 237.141, 67.69, 1)" offset="100%"></stop></linearGradient></defs><path style="transform:translate(0, 0px); opacity:1" fill="url(#sw-gradient-0)" d="M0,245L10,277.7C20,310,40,376,60,359.3C80,343,100,245,120,204.2C140,163,160,180,180,196C200,212,220,229,240,220.5C260,212,280,180,300,138.8C320,98,340,49,360,89.8C380,131,400,261,420,302.2C440,343,460,294,480,261.3C500,229,520,212,540,179.7C560,147,580,98,600,114.3C620,131,640,212,660,236.8C680,261,700,229,720,245C740,261,760,327,780,334.8C800,343,820,294,840,253.2C860,212,880,180,900,138.8C920,98,940,49,960,81.7C980,114,1000,229,1020,261.3C1040,294,1060,245,1080,196C1100,147,1120,98,1140,106.2C1160,114,1180,180,1200,179.7C1220,180,1240,114,1260,106.2C1280,98,1300,147,1320,147C1340,147,1360,98,1380,122.5C1400,147,1420,245,1430,294L1440,343L1440,490L1430,490C1420,490,1400,490,1380,490C1360,490,1340,490,1320,490C1300,490,1280,490,1260,490C1240,490,1220,490,1200,490C1180,490,1160,490,1140,490C1120,490,1100,490,1080,490C1060,490,1040,490,1020,490C1000,490,980,490,960,490C940,490,920,490,900,490C880,490,860,490,840,490C820,490,800,490,780,490C760,490,740,490,720,490C700,490,680,490,660,490C640,490,620,490,600,490C580,490,560,490,540,490C520,490,500,490,480,490C460,490,440,490,420,490C400,490,380,490,360,490C340,490,320,490,300,490C280,490,260,490,240,490C220,490,200,490,180,490C160,490,140,490,120,490C100,490,80,490,60,490C40,490,20,490,10,490L0,490Z"></path></svg>
