<svg id="wave" style="transform:rotate(0deg); transition: 0.3s" viewBox="0 0 900 480" version="1.1" xmlns="http://www.w3.org/2000/svg"><defs><linearGradient id="sw-gradient-0" x1="0" x2="0" y1="1" y2="0"><stop stop-color="rgba(89.56, 29.138, 239.418, 1)" offset="0%"></stop><stop stop-color="rgba(248.525, 204.139, 106.021, 1)" offset="100%"></stop></linearGradient></defs><path style="transform:translate(0, 0px); opacity:1" fill="url(#sw-gradient-0)" d="M0,392L12,351.2C24,310,48,229,72,220.5C96,212,120,278,144,326.7C168,376,192,408,216,400.2C240,392,264,343,288,334.8C312,327,336,359,360,367.5C384,376,408,359,432,326.7C456,294,480,245,504,220.5C528,196,552,196,576,220.5C600,245,624,294,648,277.7C672,261,696,180,720,171.5C744,163,768,229,792,277.7C816,327,840,359,864,359.3C888,359,912,327,936,277.7C960,229,984,163,1008,114.3C1032,65,1056,33,1080,24.5C1104,16,1128,33,1152,57.2C1176,82,1200,114,1224,130.7C1248,147,1272,147,1296,179.7C1320,212,1344,278,1368,310.3C1392,343,1416,343,1440,359.3C1464,376,1488,408,1512,424.7C1536,441,1560,441,1584,432.8C1608,425,1632,408,1656,400.2C1680,392,1704,392,1716,392L1728,392L1728,490L1716,490C1704,490,1680,490,1656,490C1632,490,1608,490,1584,490C1560,490,1536,490,1512,490C1488,490,1464,490,1440,490C1416,490,1392,490,1368,490C1344,490,1320,490,1296,490C1272,490,1248,490,1224,490C1200,490,1176,490,1152,490C1128,490,1104,490,1080,490C1056,490,1032,490,1008,490C984,490,960,490,936,490C912,490,888,490,864,490C840,490,816,490,792,490C768,490,744,490,720,490C696,490,672,490,648,490C624,490,600,490,576,490C552,490,528,490,504,490C480,490,456,490,432,490C408,490,384,490,360,490C336,490,312,490,288,490C264,490,240,490,216,490C192,490,168,490,144,490C120,490,96,490,72,490C48,490,24,490,12,490L0,490Z"></path></svg>
