<svg id="wave" style="transform:rotate(0deg); transition: 0.3s" viewBox="0 0 900 480" version="1.1" xmlns="http://www.w3.org/2000/svg"><defs><linearGradient id="sw-gradient-0" x1="0" x2="0" y1="1" y2="0"><stop stop-color="rgba(81.987, 59.584, 180.222, 1)" offset="0%"></stop><stop stop-color="rgba(243.972, 169.506, 4.897, 1)" offset="100%"></stop></linearGradient></defs><path style="transform:translate(0, 0px); opacity:1" fill="url(#sw-gradient-0)" d="M0,392L10,351.2C20,310,40,229,60,220.5C80,212,100,278,120,326.7C140,376,160,408,180,400.2C200,392,220,343,240,334.8C260,327,280,359,300,367.5C320,376,340,359,360,326.7C380,294,400,245,420,220.5C440,196,460,196,480,220.5C500,245,520,294,540,277.7C560,261,580,180,600,171.5C620,163,640,229,660,277.7C680,327,700,359,720,359.3C740,359,760,327,780,277.7C800,229,820,163,840,114.3C860,65,880,33,900,24.5C920,16,940,33,960,57.2C980,82,1000,114,1020,130.7C1040,147,1060,147,1080,179.7C1100,212,1120,278,1140,310.3C1160,343,1180,343,1200,359.3C1220,376,1240,408,1260,424.7C1280,441,1300,441,1320,432.8C1340,425,1360,408,1380,400.2C1400,392,1420,392,1430,392L1440,392L1440,490L1430,490C1420,490,1400,490,1380,490C1360,490,1340,490,1320,490C1300,490,1280,490,1260,490C1240,490,1220,490,1200,490C1180,490,1160,490,1140,490C1120,490,1100,490,1080,490C1060,490,1040,490,1020,490C1000,490,980,490,960,490C940,490,920,490,900,490C880,490,860,490,840,490C820,490,800,490,780,490C760,490,740,490,720,490C700,490,680,490,660,490C640,490,620,490,600,490C580,490,560,490,540,490C520,490,500,490,480,490C460,490,440,490,420,490C400,490,380,490,360,490C340,490,320,490,300,490C280,490,260,490,240,490C220,490,200,490,180,490C160,490,140,490,120,490C100,490,80,490,60,490C40,490,20,490,10,490L0,490Z"></path></svg>
