<svg id="wave" style="transform:rotate(0deg); transition: 0.3s" viewBox="0 0 950 490" version="1.1" xmlns="http://www.w3.org/2000/svg"><defs><linearGradient id="sw-gradient-0" x1="0" x2="0" y1="1" y2="0"><stop stop-color="rgba(66.505, 63.674, 237.141, 1)" offset="0%"></stop><stop stop-color="rgba(255, 148.673, 58.39, 1)" offset="100%"></stop></linearGradient></defs><path style="transform:translate(0, 0px); opacity:1" fill="url(#sw-gradient-0)" d="M0,147L10,155.2C20,163,40,180,60,187.8C80,196,100,196,120,187.8C140,180,160,163,180,155.2C200,147,220,147,240,187.8C260,229,280,310,300,310.3C320,310,340,229,360,220.5C380,212,400,278,420,253.2C440,229,460,114,480,106.2C500,98,520,196,540,253.2C560,310,580,327,600,302.2C620,278,640,212,660,220.5C680,229,700,310,720,359.3C740,408,760,425,780,416.5C800,408,820,376,840,318.5C860,261,880,180,900,187.8C920,196,940,294,960,277.7C980,261,1000,131,1020,65.3C1040,0,1060,0,1080,0C1100,0,1120,0,1140,24.5C1160,49,1180,98,1200,138.8C1220,180,1240,212,1260,212.3C1280,212,1300,180,1320,138.8C1340,98,1360,49,1380,32.7C1400,16,1420,33,1430,40.8L1440,49L1440,490L1430,490C1420,490,1400,490,1380,490C1360,490,1340,490,1320,490C1300,490,1280,490,1260,490C1240,490,1220,490,1200,490C1180,490,1160,490,1140,490C1120,490,1100,490,1080,490C1060,490,1040,490,1020,490C1000,490,980,490,960,490C940,490,920,490,900,490C880,490,860,490,840,490C820,490,800,490,780,490C760,490,740,490,720,490C700,490,680,490,660,490C640,490,620,490,600,490C580,490,560,490,540,490C520,490,500,490,480,490C460,490,440,490,420,490C400,490,380,490,360,490C340,490,320,490,300,490C280,490,260,490,240,490C220,490,200,490,180,490C160,490,140,490,120,490C100,490,80,490,60,490C40,490,20,490,10,490L0,490Z"></path></svg>
