<svg id="wave" style="transform:rotate(0deg); transition: 0.3s" viewBox="0 0 950 490" version="1.1" xmlns="http://www.w3.org/2000/svg"><defs><linearGradient id="sw-gradient-0" x1="0" x2="0" y1="1" y2="0"><stop stop-color="rgba(243, 106, 62, 1)" offset="0%"></stop><stop stop-color="rgba(255, 179, 11, 1)" offset="100%"></stop></linearGradient></defs><path style="transform:translate(0, 0px); opacity:1" fill="url(#sw-gradient-0)" d="M0,196L34.3,204.2C68.6,212,137,229,206,236.8C274.3,245,343,245,411,204.2C480,163,549,82,617,98C685.7,114,754,229,823,228.7C891.4,229,960,114,1029,89.8C1097.1,65,1166,131,1234,147C1302.9,163,1371,131,1440,130.7C1508.6,131,1577,163,1646,171.5C1714.3,180,1783,163,1851,163.3C1920,163,1989,180,2057,228.7C2125.7,278,2194,359,2263,383.8C2331.4,408,2400,376,2469,367.5C2537.1,359,2606,376,2674,359.3C2742.9,343,2811,294,2880,253.2C2948.6,212,3017,180,3086,196C3154.3,212,3223,278,3291,285.8C3360,294,3429,245,3497,212.3C3565.7,180,3634,163,3703,171.5C3771.4,180,3840,212,3909,187.8C3977.1,163,4046,82,4114,65.3C4182.9,49,4251,98,4320,98C4388.6,98,4457,49,4526,81.7C4594.3,114,4663,229,4731,269.5C4800,310,4869,278,4903,261.3L4937.1,245L4937.1,490L4902.9,490C4868.6,490,4800,490,4731,490C4662.9,490,4594,490,4526,490C4457.1,490,4389,490,4320,490C4251.4,490,4183,490,4114,490C4045.7,490,3977,490,3909,490C3840,490,3771,490,3703,490C3634.3,490,3566,490,3497,490C3428.6,490,3360,490,3291,490C3222.9,490,3154,490,3086,490C3017.1,490,2949,490,2880,490C2811.4,490,2743,490,2674,490C2605.7,490,2537,490,2469,490C2400,490,2331,490,2263,490C2194.3,490,2126,490,2057,490C1988.6,490,1920,490,1851,490C1782.9,490,1714,490,1646,490C1577.1,490,1509,490,1440,490C1371.4,490,1303,490,1234,490C1165.7,490,1097,490,1029,490C960,490,891,490,823,490C754.3,490,686,490,617,490C548.6,490,480,490,411,490C342.9,490,274,490,206,490C137.1,490,69,490,34,490L0,490Z"></path></svg>
