<svg id="wave" style="transform:rotate(0deg); transition: 0.3s" viewBox="0 0 1440 180" version="1.1" xmlns="http://www.w3.org/2000/svg"><defs><linearGradient id="sw-gradient-0" x1="0" x2="0" y1="1" y2="0"><stop stop-color="rgba(243, 106, 62, 1)" offset="0%"></stop><stop stop-color="rgba(255, 179, 11, 1)" offset="100%"></stop></linearGradient></defs><path style="transform:translate(0, 0px); opacity:1" fill="url(#sw-gradient-0)" d="M0,90L10,102C20,114,40,138,60,132C80,126,100,90,120,75C140,60,160,66,180,72C200,78,220,84,240,81C260,78,280,66,300,51C320,36,340,18,360,33C380,48,400,96,420,111C440,126,460,108,480,96C500,84,520,78,540,66C560,54,580,36,600,42C620,48,640,78,660,87C680,96,700,84,720,90C740,96,760,120,780,123C800,126,820,108,840,93C860,78,880,66,900,51C920,36,940,18,960,30C980,42,1000,84,1020,96C1040,108,1060,90,1080,72C1100,54,1120,36,1140,39C1160,42,1180,66,1200,66C1220,66,1240,42,1260,39C1280,36,1300,54,1320,54C1340,54,1360,36,1380,45C1400,54,1420,90,1430,108L1440,126L1440,180L1430,180C1420,180,1400,180,1380,180C1360,180,1340,180,1320,180C1300,180,1280,180,1260,180C1240,180,1220,180,1200,180C1180,180,1160,180,1140,180C1120,180,1100,180,1080,180C1060,180,1040,180,1020,180C1000,180,980,180,960,180C940,180,920,180,900,180C880,180,860,180,840,180C820,180,800,180,780,180C760,180,740,180,720,180C700,180,680,180,660,180C640,180,620,180,600,180C580,180,560,180,540,180C520,180,500,180,480,180C460,180,440,180,420,180C400,180,380,180,360,180C340,180,320,180,300,180C280,180,260,180,240,180C220,180,200,180,180,180C160,180,140,180,120,180C100,180,80,180,60,180C40,180,20,180,10,180L0,180Z"></path></svg>
